<svg width="230px" height="175px" viewBox="0 0 230 175" version="1.1" xmlns="http://www.w3.org/2000/svg" xmlns:xlink="http://www.w3.org/1999/xlink">
    <defs>
        <polygon id="path-1" points="0.1395 0.6751 79.107 0.6751 79.107 79.8501 0.1395 79.8501"></polygon>
        <path d="M1.342,0.597 C0.79,0.597 0.342,1.044 0.342,1.597 L0.342,1.597 C0.342,2.15 0.79,2.597 1.342,2.597 L1.342,2.597 L17.342,2.597 C17.894,2.597 18.342,2.15 18.342,1.597 L18.342,1.597 C18.342,1.044 17.894,0.597 17.342,0.597 L17.342,0.597 L1.342,0.597 Z" id="path-3"></path>
        <path d="M1.341,0.597 C0.79,0.597 0.342,1.044 0.342,1.597 L0.342,1.597 C0.342,2.15 0.79,2.597 1.341,2.597 L1.341,2.597 L9.342,2.597 C9.894,2.597 10.341,2.15 10.341,1.597 L10.341,1.597 C10.341,1.044 9.894,0.597 9.342,0.597 L9.342,0.597 L1.341,0.597 Z" id="path-5"></path>
        <path d="M0.412,3.899 C0.412,5.553 1.757,6.899 3.412,6.899 L3.412,6.899 C5.065,6.899 6.411,5.553 6.411,3.899 L6.411,3.899 C6.411,2.245 5.065,0.9 3.412,0.9 L3.412,0.9 C1.757,0.9 0.412,2.245 0.412,3.899 L0.412,3.899 Z M2.412,3.899 C2.412,3.348 2.861,2.899 3.412,2.899 L3.412,2.899 C3.962,2.899 4.411,3.348 4.411,3.899 L4.411,3.899 C4.411,4.452 3.962,4.899 3.412,4.899 L3.412,4.899 C2.861,4.899 2.412,4.452 2.412,3.899 L2.412,3.899 Z" id="path-7"></path>
        <path d="M0.958,1.625 L0.207,3.625 C0.014,4.143 0.276,4.719 0.793,4.915 L0.793,4.915 C0.909,4.956 1.027,4.978 1.144,4.978 L1.144,4.978 C1.549,4.978 1.931,4.73 2.082,4.33 L2.082,4.33 L2.831,2.329 C3.024,1.812 2.762,1.236 2.246,1.04 L2.246,1.04 C2.131,0.998 2.013,0.978 1.897,0.978 L1.897,0.978 C1.491,0.978 1.109,1.224 0.958,1.625 L0.958,1.625 Z" id="path-9"></path>
        <path d="M0.724,2.064 L0.724,28.06 C0.724,28.659 1.209,29.143 1.808,29.143 L1.808,29.143 C2.406,29.143 2.891,28.659 2.891,28.06 L2.891,28.06 L2.891,2.064 C2.891,1.464 2.406,0.981 1.808,0.981 L1.808,0.981 C1.209,0.981 0.724,1.464 0.724,2.064 L0.724,2.064 Z" id="path-11"></path>
        <path d="M0.727,2.071 C0.727,3.175 1.623,4.071 2.728,4.071 L2.728,4.071 C3.831,4.071 4.727,3.175 4.727,2.071 L4.727,2.071 C4.727,0.967 3.831,0.071 2.728,0.071 L2.728,0.071 C1.623,0.071 0.727,0.967 0.727,2.071 L0.727,2.071 Z" id="path-13"></path>
        <polygon id="path-15" points="0.962 0.493 74.617 0.493 74.617 30.822 0.962 30.822"></polygon>
        <path d="M1.962,0.409 C1.363,0.409 0.879,0.894 0.879,1.493 L0.879,1.493 L0.879,31.822 C0.879,32.42 1.363,32.905 1.962,32.905 L1.962,32.905 L75.617,32.905 C76.215,32.905 76.7,32.42 76.7,31.822 L76.7,31.822 L76.7,1.493 C76.7,0.894 76.215,0.409 75.617,0.409 L75.617,0.409 L1.962,0.409 Z M3.044,30.738 L74.534,30.738 L74.534,2.576 L3.044,2.576 L3.044,30.738 Z" id="path-17"></path>
        <polygon id="path-19" points="0.952 0.825 5.285 0.825 5.285 5.158 0.952 5.158"></polygon>
        <path d="M1.952,0.742 C1.354,0.742 0.869,1.226 0.869,1.825 L0.869,1.825 L0.869,6.158 C0.869,6.757 1.354,7.241 1.952,7.241 L1.952,7.241 L6.284,7.241 C6.882,7.241 7.368,6.757 7.368,6.158 L7.368,6.158 L7.368,1.825 C7.368,1.226 6.882,0.742 6.284,0.742 L6.284,0.742 L1.952,0.742 Z M3.035,5.075 L5.2,5.075 L5.2,2.909 L3.035,2.909 L3.035,5.075 Z" id="path-21"></path>
        <polygon id="path-23" points="0.286 0.825 4.619 0.825 4.619 5.158 0.286 5.158"></polygon>
        <path d="M1.286,0.742 C0.688,0.742 0.203,1.226 0.203,1.825 L0.203,1.825 L0.203,6.158 C0.203,6.757 0.688,7.241 1.286,7.241 L1.286,7.241 L5.619,7.241 C6.217,7.241 6.702,6.757 6.702,6.158 L6.702,6.158 L6.702,1.825 C6.702,1.226 6.217,0.742 5.619,0.742 L5.619,0.742 L1.286,0.742 Z M2.369,5.075 L4.536,5.075 L4.536,2.909 L2.369,2.909 L2.369,5.075 Z" id="path-25"></path>
        <polygon id="path-27" points="0.621 0.825 4.954 0.825 4.954 5.158 0.621 5.158"></polygon>
        <path d="M1.621,0.742 C1.024,0.742 0.538,1.226 0.538,1.825 L0.538,1.825 L0.538,6.158 C0.538,6.757 1.024,7.241 1.621,7.241 L1.621,7.241 L5.954,7.241 C6.551,7.241 7.037,6.757 7.037,6.158 L7.037,6.158 L7.037,1.825 C7.037,1.226 6.551,0.742 5.954,0.742 L5.954,0.742 L1.621,0.742 Z M2.705,5.075 L4.87,5.075 L4.87,2.909 L2.705,2.909 L2.705,5.075 Z" id="path-29"></path>
        <polygon id="path-31" points="0.956 0.825 5.289 0.825 5.289 5.158 0.956 5.158"></polygon>
        <path d="M1.956,0.742 C1.357,0.742 0.872,1.226 0.872,1.825 L0.872,1.825 L0.872,6.158 C0.872,6.757 1.357,7.241 1.956,7.241 L1.956,7.241 L6.289,7.241 C6.886,7.241 7.371,6.757 7.371,6.158 L7.371,6.158 L7.371,1.825 C7.371,1.226 6.886,0.742 6.289,0.742 L6.289,0.742 L1.956,0.742 Z M3.039,5.075 L5.205,5.075 L5.205,2.909 L3.039,2.909 L3.039,5.075 Z" id="path-33"></path>
        <polygon id="path-35" points="0.291 0.825 4.623 0.825 4.623 5.158 0.291 5.158"></polygon>
        <path d="M1.291,0.742 C0.692,0.742 0.207,1.226 0.207,1.825 L0.207,1.825 L0.207,6.158 C0.207,6.757 0.692,7.241 1.291,7.241 L1.291,7.241 L5.622,7.241 C6.221,7.241 6.706,6.757 6.706,6.158 L6.706,6.158 L6.706,1.825 C6.706,1.226 6.221,0.742 5.622,0.742 L5.622,0.742 L1.291,0.742 Z M2.374,5.075 L4.54,5.075 L4.54,2.909 L2.374,2.909 L2.374,5.075 Z" id="path-37"></path>
        <polygon id="path-39" points="0.625 0.825 4.959 0.825 4.959 5.158 0.625 5.158"></polygon>
        <path d="M1.625,0.742 C1.027,0.742 0.542,1.226 0.542,1.825 L0.542,1.825 L0.542,6.158 C0.542,6.757 1.027,7.241 1.625,7.241 L1.625,7.241 L5.958,7.241 C6.556,7.241 7.041,6.757 7.041,6.158 L7.041,6.158 L7.041,1.825 C7.041,1.226 6.556,0.742 5.958,0.742 L5.958,0.742 L1.625,0.742 Z M2.708,5.075 L4.874,5.075 L4.874,2.909 L2.708,2.909 L2.708,5.075 Z" id="path-41"></path>
        <polygon id="path-43" points="0.96 0.825 5.293 0.825 5.293 5.158 0.96 5.158"></polygon>
        <path d="M1.96,0.742 C1.362,0.742 0.876,1.226 0.876,1.825 L0.876,1.825 L0.876,6.158 C0.876,6.757 1.362,7.241 1.96,7.241 L1.96,7.241 L6.292,7.241 C6.891,7.241 7.376,6.757 7.376,6.158 L7.376,6.158 L7.376,1.825 C7.376,1.226 6.891,0.742 6.292,0.742 L6.292,0.742 L1.96,0.742 Z M3.043,5.075 L5.209,5.075 L5.209,2.909 L3.043,2.909 L3.043,5.075 Z" id="path-45"></path>
        <polygon id="path-47" points="0.294 0.825 4.627 0.825 4.627 5.158 0.294 5.158"></polygon>
        <path d="M1.294,0.742 C0.697,0.742 0.212,1.226 0.212,1.825 L0.212,1.825 L0.212,6.158 C0.212,6.757 0.697,7.241 1.294,7.241 L1.294,7.241 L5.627,7.241 C6.225,7.241 6.71,6.757 6.71,6.158 L6.71,6.158 L6.71,1.825 C6.71,1.226 6.225,0.742 5.627,0.742 L5.627,0.742 L1.294,0.742 Z M2.377,5.075 L4.544,5.075 L4.544,2.909 L2.377,2.909 L2.377,5.075 Z" id="path-49"></path>
        <polygon id="path-51" points="0.952 0.49 5.285 0.49 5.285 4.823 0.952 4.823"></polygon>
        <path d="M1.952,0.408 C1.354,0.408 0.869,0.892 0.869,1.491 L0.869,1.491 L0.869,5.823 C0.869,6.423 1.354,6.907 1.952,6.907 L1.952,6.907 L6.284,6.907 C6.882,6.907 7.368,6.423 7.368,5.823 L7.368,5.823 L7.368,1.491 C7.368,0.892 6.882,0.408 6.284,0.408 L6.284,0.408 L1.952,0.408 Z M3.035,4.74 L5.2,4.74 L5.2,2.574 L3.035,2.574 L3.035,4.74 Z" id="path-53"></path>
        <polygon id="path-55" points="0.286 0.49 4.619 0.49 4.619 4.823 0.286 4.823"></polygon>
        <path d="M1.286,0.408 C0.688,0.408 0.203,0.892 0.203,1.491 L0.203,1.491 L0.203,5.823 C0.203,6.423 0.688,6.907 1.286,6.907 L1.286,6.907 L5.619,6.907 C6.217,6.907 6.702,6.423 6.702,5.823 L6.702,5.823 L6.702,1.491 C6.702,0.892 6.217,0.408 5.619,0.408 L5.619,0.408 L1.286,0.408 Z M2.369,4.74 L4.536,4.74 L4.536,2.574 L2.369,2.574 L2.369,4.74 Z" id="path-57"></path>
        <polygon id="path-59" points="0.621 0.49 4.954 0.49 4.954 4.823 0.621 4.823"></polygon>
        <path d="M1.621,0.408 C1.024,0.408 0.538,0.892 0.538,1.491 L0.538,1.491 L0.538,5.823 C0.538,6.423 1.024,6.907 1.621,6.907 L1.621,6.907 L5.954,6.907 C6.551,6.907 7.037,6.423 7.037,5.823 L7.037,5.823 L7.037,1.491 C7.037,0.892 6.551,0.408 5.954,0.408 L5.954,0.408 L1.621,0.408 Z M2.705,4.74 L4.87,4.74 L4.87,2.574 L2.705,2.574 L2.705,4.74 Z" id="path-61"></path>
        <polygon id="path-63" points="0.956 0.49 5.289 0.49 5.289 4.823 0.956 4.823"></polygon>
        <path d="M1.956,0.408 C1.357,0.408 0.872,0.892 0.872,1.491 L0.872,1.491 L0.872,5.823 C0.872,6.423 1.357,6.907 1.956,6.907 L1.956,6.907 L6.289,6.907 C6.886,6.907 7.371,6.423 7.371,5.823 L7.371,5.823 L7.371,1.491 C7.371,0.892 6.886,0.408 6.289,0.408 L6.289,0.408 L1.956,0.408 Z M3.039,4.74 L5.205,4.74 L5.205,2.574 L3.039,2.574 L3.039,4.74 Z" id="path-65"></path>
        <polygon id="path-67" points="0.291 0.49 4.623 0.49 4.623 4.823 0.291 4.823"></polygon>
        <path d="M1.291,0.408 C0.692,0.408 0.207,0.892 0.207,1.491 L0.207,1.491 L0.207,5.823 C0.207,6.423 0.692,6.907 1.291,6.907 L1.291,6.907 L5.622,6.907 C6.221,6.907 6.706,6.423 6.706,5.823 L6.706,5.823 L6.706,1.491 C6.706,0.892 6.221,0.408 5.622,0.408 L5.622,0.408 L1.291,0.408 Z M2.374,4.74 L4.54,4.74 L4.54,2.574 L2.374,2.574 L2.374,4.74 Z" id="path-69"></path>
        <polygon id="path-71" points="0.625 0.49 4.959 0.49 4.959 4.823 0.625 4.823"></polygon>
        <path d="M1.625,0.408 C1.027,0.408 0.542,0.892 0.542,1.491 L0.542,1.491 L0.542,5.823 C0.542,6.423 1.027,6.907 1.625,6.907 L1.625,6.907 L5.958,6.907 C6.556,6.907 7.041,6.423 7.041,5.823 L7.041,5.823 L7.041,1.491 C7.041,0.892 6.556,0.408 5.958,0.408 L5.958,0.408 L1.625,0.408 Z M2.708,4.74 L4.874,4.74 L4.874,2.574 L2.708,2.574 L2.708,4.74 Z" id="path-73"></path>
        <polygon id="path-75" points="0.96 0.49 5.293 0.49 5.293 4.823 0.96 4.823"></polygon>
        <path d="M1.96,0.408 C1.362,0.408 0.876,0.892 0.876,1.491 L0.876,1.491 L0.876,5.823 C0.876,6.423 1.362,6.907 1.96,6.907 L1.96,6.907 L6.292,6.907 C6.891,6.907 7.376,6.423 7.376,5.823 L7.376,5.823 L7.376,1.491 C7.376,0.892 6.891,0.408 6.292,0.408 L6.292,0.408 L1.96,0.408 Z M3.043,4.74 L5.209,4.74 L5.209,2.574 L3.043,2.574 L3.043,4.74 Z" id="path-77"></path>
        <polygon id="path-79" points="0.294 0.49 4.627 0.49 4.627 4.823 0.294 4.823"></polygon>
        <path d="M1.294,0.408 C0.697,0.408 0.212,0.892 0.212,1.491 L0.212,1.491 L0.212,5.823 C0.212,6.423 0.697,6.907 1.294,6.907 L1.294,6.907 L5.627,6.907 C6.225,6.907 6.71,6.423 6.71,5.823 L6.71,5.823 L6.71,1.491 C6.71,0.892 6.225,0.408 5.627,0.408 L5.627,0.408 L1.294,0.408 Z M2.377,4.74 L4.544,4.74 L4.544,2.574 L2.377,2.574 L2.377,4.74 Z" id="path-81"></path>
        <polygon id="path-83" points="0.952 0.155 5.285 0.155 5.285 4.488 0.952 4.488"></polygon>
        <path d="M1.952,0.073 C1.354,0.073 0.869,0.557 0.869,1.156 L0.869,1.156 L0.869,5.488 C0.869,6.088 1.354,6.572 1.952,6.572 L1.952,6.572 L6.284,6.572 C6.882,6.572 7.368,6.088 7.368,5.488 L7.368,5.488 L7.368,1.156 C7.368,0.557 6.882,0.073 6.284,0.073 L6.284,0.073 L1.952,0.073 Z M3.035,4.405 L5.2,4.405 L5.2,2.239 L3.035,2.239 L3.035,4.405 Z" id="path-85"></path>
        <polygon id="path-87" points="0.286 0.155 4.619 0.155 4.619 4.488 0.286 4.488"></polygon>
        <path d="M1.286,0.073 C0.688,0.073 0.203,0.557 0.203,1.156 L0.203,1.156 L0.203,5.488 C0.203,6.088 0.688,6.572 1.286,6.572 L1.286,6.572 L5.619,6.572 C6.217,6.572 6.702,6.088 6.702,5.488 L6.702,5.488 L6.702,1.156 C6.702,0.557 6.217,0.073 5.619,0.073 L5.619,0.073 L1.286,0.073 Z M2.369,4.405 L4.536,4.405 L4.536,2.239 L2.369,2.239 L2.369,4.405 Z" id="path-89"></path>
        <polygon id="path-91" points="0.621 0.155 4.954 0.155 4.954 4.488 0.621 4.488"></polygon>
        <path d="M1.621,0.073 C1.024,0.073 0.538,0.557 0.538,1.156 L0.538,1.156 L0.538,5.488 C0.538,6.088 1.024,6.572 1.621,6.572 L1.621,6.572 L5.954,6.572 C6.551,6.572 7.037,6.088 7.037,5.488 L7.037,5.488 L7.037,1.156 C7.037,0.557 6.551,0.073 5.954,0.073 L5.954,0.073 L1.621,0.073 Z M2.705,4.405 L4.87,4.405 L4.87,2.239 L2.705,2.239 L2.705,4.405 Z" id="path-93"></path>
        <polygon id="path-95" points="0.956 0.155 5.289 0.155 5.289 4.488 0.956 4.488"></polygon>
        <path d="M1.956,0.073 C1.357,0.073 0.872,0.557 0.872,1.156 L0.872,1.156 L0.872,5.488 C0.872,6.088 1.357,6.572 1.956,6.572 L1.956,6.572 L6.289,6.572 C6.886,6.572 7.371,6.088 7.371,5.488 L7.371,5.488 L7.371,1.156 C7.371,0.557 6.886,0.073 6.289,0.073 L6.289,0.073 L1.956,0.073 Z M3.039,4.405 L5.205,4.405 L5.205,2.239 L3.039,2.239 L3.039,4.405 Z" id="path-97"></path>
        <polygon id="path-99" points="0.291 0.155 4.623 0.155 4.623 4.488 0.291 4.488"></polygon>
        <path d="M1.291,0.073 C0.692,0.073 0.207,0.557 0.207,1.156 L0.207,1.156 L0.207,5.488 C0.207,6.088 0.692,6.572 1.291,6.572 L1.291,6.572 L5.622,6.572 C6.221,6.572 6.706,6.088 6.706,5.488 L6.706,5.488 L6.706,1.156 C6.706,0.557 6.221,0.073 5.622,0.073 L5.622,0.073 L1.291,0.073 Z M2.374,4.405 L4.54,4.405 L4.54,2.239 L2.374,2.239 L2.374,4.405 Z" id="path-101"></path>
        <polygon id="path-103" points="0.625 0.155 4.959 0.155 4.959 4.488 0.625 4.488"></polygon>
        <path d="M1.625,0.073 C1.027,0.073 0.542,0.557 0.542,1.156 L0.542,1.156 L0.542,5.488 C0.542,6.088 1.027,6.572 1.625,6.572 L1.625,6.572 L5.958,6.572 C6.556,6.572 7.041,6.088 7.041,5.488 L7.041,5.488 L7.041,1.156 C7.041,0.557 6.556,0.073 5.958,0.073 L5.958,0.073 L1.625,0.073 Z M2.708,4.405 L4.874,4.405 L4.874,2.239 L2.708,2.239 L2.708,4.405 Z" id="path-105"></path>
        <polygon id="path-107" points="0.96 0.155 5.293 0.155 5.293 4.488 0.96 4.488"></polygon>
        <path d="M1.96,0.073 C1.362,0.073 0.876,0.557 0.876,1.156 L0.876,1.156 L0.876,5.488 C0.876,6.088 1.362,6.572 1.96,6.572 L1.96,6.572 L6.292,6.572 C6.891,6.572 7.376,6.088 7.376,5.488 L7.376,5.488 L7.376,1.156 C7.376,0.557 6.891,0.073 6.292,0.073 L6.292,0.073 L1.96,0.073 Z M3.043,4.405 L5.209,4.405 L5.209,2.239 L3.043,2.239 L3.043,4.405 Z" id="path-109"></path>
        <polygon id="path-111" points="0.294 0.155 4.627 0.155 4.627 4.488 0.294 4.488"></polygon>
        <path d="M1.294,0.073 C0.697,0.073 0.212,0.557 0.212,1.156 L0.212,1.156 L0.212,5.488 C0.212,6.088 0.697,6.572 1.294,6.572 L1.294,6.572 L5.627,6.572 C6.225,6.572 6.71,6.088 6.71,5.488 L6.71,5.488 L6.71,1.156 C6.71,0.557 6.225,0.073 5.627,0.073 L5.627,0.073 L1.294,0.073 Z M2.377,4.405 L4.544,4.405 L4.544,2.239 L2.377,2.239 L2.377,4.405 Z" id="path-113"></path>
        <polygon id="path-115" points="0.625 0.155 30.954 0.155 30.954 4.488 0.625 4.488"></polygon>
        <path d="M1.625,0.073 C1.027,0.073 0.542,0.557 0.542,1.156 L0.542,1.156 L0.542,5.488 C0.542,6.088 1.027,6.572 1.625,6.572 L1.625,6.572 L31.954,6.572 C32.551,6.572 33.037,6.088 33.037,5.488 L33.037,5.488 L33.037,1.156 C33.037,0.557 32.551,0.073 31.954,0.073 L31.954,0.073 L1.625,0.073 Z M2.708,4.405 L30.87,4.405 L30.87,2.239 L2.708,2.239 L2.708,4.405 Z" id="path-117"></path>
        <path d="M1.576,0.109 C0.977,0.109 0.493,0.593 0.493,1.192 L0.493,1.192 C0.493,1.789 0.977,2.275 1.576,2.275 L1.576,2.275 L5.909,2.275 C6.508,2.275 6.992,1.789 6.992,1.192 L6.992,1.192 C6.992,0.593 6.508,0.109 5.909,0.109 L5.909,0.109 L1.576,0.109 Z" id="path-119"></path>
        <path d="M8.885,1.547 C8.885,5.727 5.484,9.13 1.303,9.13 L1.303,9.13 C0.705,9.13 0.22,9.614 0.22,10.213 L0.22,10.213 C0.22,10.812 0.705,11.296 1.303,11.296 L1.303,11.296 C6.677,11.296 11.051,6.923 11.051,1.547 L11.051,1.547 C11.051,0.949 10.566,0.464 9.968,0.464 L9.968,0.464 C9.37,0.464 8.885,0.949 8.885,1.547 L8.885,1.547 Z" id="path-121"></path>
        <path d="M0.055,9.545 C0.055,10.097 0.503,10.545 1.055,10.545 L1.055,10.545 C1.608,10.545 2.056,10.097 2.056,9.545 L2.056,9.545 C2.056,5.686 5.196,2.544 9.055,2.544 L9.055,2.544 C9.608,2.544 10.055,2.097 10.055,1.545 L10.055,1.545 C10.055,0.992 9.608,0.545 9.055,0.545 L9.055,0.545 C4.093,0.545 0.055,4.581 0.055,9.545 L0.055,9.545 Z" id="path-123"></path>
        <path d="M0.728,9.071 L0.728,21.071 C0.728,26.034 4.765,30.071 9.728,30.071 L9.728,30.071 C14.689,30.071 18.728,26.034 18.728,21.071 L18.728,21.071 L18.728,9.071 C18.728,4.109 14.689,0.071 9.728,0.071 L9.728,0.071 C4.765,0.071 0.728,4.109 0.728,9.071 L0.728,9.071 Z M2.727,21.071 L2.727,9.071 C2.727,5.212 5.867,2.071 9.728,2.071 L9.728,2.071 C13.587,2.071 16.727,5.212 16.727,9.071 L16.727,9.071 L16.727,21.071 C16.727,24.93 13.587,28.071 9.728,28.071 L9.728,28.071 C5.867,28.071 2.727,24.93 2.727,21.071 L2.727,21.071 Z" id="path-125"></path>
        <path d="M0.727,3.071 C0.727,4.725 2.074,6.071 3.728,6.071 L3.728,6.071 C5.381,6.071 6.727,4.725 6.727,3.071 L6.727,3.071 C6.727,1.417 5.381,0.072 3.728,0.072 L3.728,0.072 C2.074,0.072 0.727,1.417 0.727,3.071 L0.727,3.071 Z M2.728,3.071 C2.728,2.52 3.176,2.071 3.728,2.071 L3.728,2.071 C4.279,2.071 4.728,2.52 4.728,3.071 L4.728,3.071 C4.728,3.624 4.279,4.071 3.728,4.071 L3.728,4.071 C3.176,4.071 2.728,3.624 2.728,3.071 L2.728,3.071 Z" id="path-127"></path>
        <path d="M0.728,1.071 L0.728,5.072 C0.728,5.624 1.175,6.071 1.728,6.071 L1.728,6.071 C2.279,6.071 2.728,5.624 2.728,5.072 L2.728,5.072 L2.728,1.071 C2.728,0.518 2.279,0.071 1.728,0.071 L1.728,0.071 C1.175,0.071 0.728,0.518 0.728,1.071 L0.728,1.071 Z" id="path-129"></path>
        <path d="M1.626,0.134 C1.109,0.329 0.847,0.905 1.041,1.424 L1.041,1.424 L1.79,3.423 C1.941,3.824 2.322,4.071 2.727,4.071 L2.727,4.071 C2.844,4.071 2.962,4.05 3.078,4.008 L3.078,4.008 C3.595,3.813 3.858,3.237 3.664,2.719 L3.664,2.719 L2.914,0.719 C2.762,0.318 2.381,0.071 1.975,0.071 L1.975,0.071 C1.859,0.071 1.742,0.091 1.626,0.134 L1.626,0.134 Z" id="path-131"></path>
        <path d="M1.145,0.55 C0.593,0.55 0.145,0.996 0.145,1.55 L0.145,1.55 C0.145,2.103 0.593,2.55 1.145,2.55 L1.145,2.55 L43.145,2.55 C43.697,2.55 44.145,2.103 44.145,1.55 L44.145,1.55 C44.145,0.996 43.697,0.55 43.145,0.55 L43.145,0.55 L1.145,0.55 Z" id="path-133"></path>
        <path d="M2.037,0.931 C1.438,0.931 0.953,1.416 0.953,2.015 L0.953,2.015 L0.953,23.678 C0.953,24.277 1.438,24.761 2.037,24.761 L2.037,24.761 L49.695,24.761 C50.295,24.761 50.779,24.277 50.779,23.678 L50.779,23.678 L50.779,2.015 C50.779,1.416 50.295,0.931 49.695,0.931 L49.695,0.931 L2.037,0.931 Z M3.12,22.595 L48.613,22.595 L48.613,3.098 L3.12,3.098 L3.12,22.595 Z" id="path-135"></path>
        <polygon id="path-137" points="0.938 0.06 29.743 0.06 29.743 22.463 0.938 22.463"></polygon>
        <path d="M0.938,0.26 C0.497,0.26 0.139,0.618 0.139,1.06 L0.139,1.06 L0.139,23.463 C0.139,23.904 0.497,24.263 0.938,24.263 L0.938,24.263 L29.743,24.263 C30.186,24.263 30.543,23.904 30.543,23.463 L30.543,23.463 L30.543,1.06 C30.543,0.618 30.186,0.26 29.743,0.26 L29.743,0.26 L0.938,0.26 Z M1.74,22.663 L28.942,22.663 L28.942,1.86 L1.74,1.86 L1.74,22.663 Z" id="path-139"></path>
        <path d="M0.339,10.459 C0.339,10.9 0.698,11.259 1.14,11.259 L1.14,11.259 C1.581,11.259 1.939,10.9 1.939,10.459 L1.939,10.459 C1.939,5.606 5.887,1.658 10.741,1.658 L10.741,1.658 C11.183,1.658 11.541,1.299 11.541,0.857 L11.541,0.857 C11.541,0.415 11.183,0.057 10.741,0.057 L10.741,0.057 C5.005,0.057 0.339,4.723 0.339,10.459 L0.339,10.459 Z" id="path-141"></path>
        <path d="M0.14,0.857 C0.14,1.299 0.499,1.658 0.941,1.658 L0.941,1.658 C5.794,1.658 9.742,5.606 9.742,10.459 L9.742,10.459 C9.742,10.9 10.101,11.259 10.542,11.259 L10.542,11.259 C10.984,11.259 11.343,10.9 11.343,10.459 L11.343,10.459 C11.343,4.723 6.676,0.057 0.941,0.057 L0.941,0.057 C0.499,0.057 0.14,0.415 0.14,0.857 L0.14,0.857 Z" id="path-143"></path>
        <path d="M0.742,1.459 L0.742,11.06 C0.742,11.502 1.101,11.86 1.542,11.86 L1.542,11.86 C1.984,11.86 2.343,11.502 2.343,11.06 L2.343,11.06 L2.343,1.459 C2.343,1.017 1.984,0.659 1.542,0.659 L1.542,0.659 C1.101,0.659 0.742,1.017 0.742,1.459 L0.742,1.459 Z" id="path-145"></path>
        <path d="M0.339,1.459 L0.339,11.06 C0.339,11.502 0.698,11.86 1.14,11.86 L1.14,11.86 C1.581,11.86 1.939,11.502 1.939,11.06 L1.939,11.06 L1.939,1.459 C1.939,1.017 1.581,0.659 1.14,0.659 L1.14,0.659 C0.698,0.659 0.339,1.017 0.339,1.459 L0.339,1.459 Z" id="path-147"></path>
        <path d="M0.54,1.459 L0.54,11.06 C0.54,11.502 0.898,11.86 1.339,11.86 L1.339,11.86 C1.781,11.86 2.139,11.502 2.139,11.06 L2.139,11.06 L2.139,1.459 C2.139,1.017 1.781,0.659 1.339,0.659 L1.339,0.659 C0.898,0.659 0.54,1.017 0.54,1.459 L0.54,1.459 Z" id="path-149"></path>
        <path d="M0.542,1.459 L0.542,11.06 C0.542,11.502 0.9,11.86 1.341,11.86 L1.341,11.86 C1.783,11.86 2.141,11.502 2.141,11.06 L2.141,11.06 L2.141,1.459 C2.141,1.017 1.783,0.659 1.341,0.659 L1.341,0.659 C0.9,0.659 0.542,1.017 0.542,1.459 L0.542,1.459 Z" id="path-151"></path>
        <path d="M0.54,7.459 C0.54,7.9 0.898,8.259 1.339,8.259 L1.339,8.259 C1.781,8.259 2.139,7.9 2.139,7.459 L2.139,7.459 C2.139,4.371 4.652,1.858 7.741,1.858 L7.741,1.858 C8.183,1.858 8.541,1.5 8.541,1.058 L8.541,1.058 C8.541,0.616 8.183,0.258 7.741,0.258 L7.741,0.258 C3.77,0.258 0.54,3.489 0.54,7.459 L0.54,7.459 Z" id="path-153"></path>
        <path d="M0.14,1.058 C0.14,1.5 0.499,1.858 0.941,1.858 L0.941,1.858 C4.029,1.858 6.542,4.371 6.542,7.459 L6.542,7.459 C6.542,7.9 6.9,8.259 7.341,8.259 L7.341,8.259 C7.783,8.259 8.141,7.9 8.141,7.459 L8.141,7.459 C8.141,3.489 4.911,0.258 0.941,0.258 L0.941,0.258 C0.499,0.258 0.14,0.616 0.14,1.058 L0.14,1.058 Z" id="path-155"></path>
        <path d="M1.741,0.258 C1.299,0.258 0.94,0.616 0.94,1.058 L0.94,1.058 C0.94,1.5 1.299,1.858 1.741,1.858 L1.741,1.858 L4.941,1.858 C5.382,1.858 5.742,1.5 5.742,1.058 L5.742,1.058 C5.742,0.616 5.382,0.258 4.941,0.258 L4.941,0.258 L1.741,0.258 Z" id="path-157"></path>
        <path d="M1.741,0.057 C1.299,0.057 0.94,0.415 0.94,0.857 L0.94,0.857 C0.94,1.299 1.299,1.658 1.741,1.658 L1.741,1.658 L4.941,1.658 C5.382,1.658 5.742,1.299 5.742,0.857 L5.742,0.857 C5.742,0.415 5.382,0.057 4.941,0.057 L4.941,0.057 L1.741,0.057 Z" id="path-159"></path>
        <path d="M0.54,1.06 L0.54,23.463 C0.54,23.904 0.898,24.263 1.339,24.263 L1.339,24.263 C1.781,24.263 2.139,23.904 2.139,23.463 L2.139,23.463 L2.139,1.06 C2.139,0.618 1.781,0.26 1.339,0.26 L1.339,0.26 C0.898,0.26 0.54,0.618 0.54,1.06 L0.54,1.06 Z" id="path-161"></path>
        <path d="M0.542,1.06 L0.542,23.463 C0.542,23.904 0.9,24.263 1.341,24.263 L1.341,24.263 C1.783,24.263 2.141,23.904 2.141,23.463 L2.141,23.463 L2.141,1.06 C2.141,0.618 1.783,0.26 1.341,0.26 L1.341,0.26 C0.9,0.26 0.542,0.618 0.542,1.06 L0.542,1.06 Z" id="path-163"></path>
        <path d="M0.142,4.659 C0.142,6.865 1.937,8.66 4.144,8.66 L4.144,8.66 C6.35,8.66 8.144,6.865 8.144,4.659 L8.144,4.659 C8.144,2.453 6.35,0.659 4.144,0.659 L4.144,0.659 C1.937,0.659 0.142,2.453 0.142,4.659 L0.142,4.659 Z M1.743,4.659 C1.743,3.336 2.82,2.259 4.144,2.259 L4.144,2.259 C5.467,2.259 6.544,3.336 6.544,4.659 L6.544,4.659 C6.544,5.982 5.467,7.059 4.144,7.059 L4.144,7.059 C2.82,7.059 1.743,5.982 1.743,4.659 L1.743,4.659 Z" id="path-165"></path>
        <path d="M0.344,0.859 L0.344,10.461 C0.344,10.903 0.701,11.261 1.144,11.261 L1.144,11.261 C1.586,11.261 1.943,10.903 1.943,10.461 L1.943,10.461 L1.943,0.859 C1.943,0.418 1.586,0.059 1.144,0.059 L1.144,0.059 C0.701,0.059 0.344,0.418 0.344,0.859 L0.344,0.859 Z" id="path-167"></path>
        <path d="M1.144,0.46 C0.701,0.46 0.344,0.818 0.344,1.26 L0.344,1.26 C0.344,1.702 0.701,2.06 1.144,2.06 L1.144,2.06 L2.744,2.06 C3.187,2.06 3.544,1.702 3.544,1.26 L3.544,1.26 C3.544,0.818 3.187,0.46 2.744,0.46 L2.744,0.46 L1.144,0.46 Z" id="path-169"></path>
        <path d="M0.544,1.058 L0.544,4.258 C0.544,4.7 0.901,5.058 1.343,5.058 L1.343,5.058 C1.786,5.058 2.144,4.7 2.144,4.258 L2.144,4.258 L2.144,1.058 C2.144,0.616 1.786,0.258 1.343,0.258 L1.343,0.258 C0.901,0.258 0.544,0.616 0.544,1.058 L0.544,1.058 Z" id="path-171"></path>
        <path d="M0.344,1.458 L0.344,4.658 C0.344,5.1 0.701,5.458 1.144,5.458 L1.144,5.458 C1.586,5.458 1.943,5.1 1.943,4.658 L1.943,4.658 L1.943,1.458 C1.943,1.016 1.586,0.658 1.144,0.658 L1.144,0.658 C0.701,0.658 0.344,1.016 0.344,1.458 L0.344,1.458 Z" id="path-173"></path>
        <path d="M0.142,1.058 L0.142,4.258 C0.142,4.7 0.501,5.058 0.943,5.058 L0.943,5.058 C1.385,5.058 1.743,4.7 1.743,4.258 L1.743,4.258 L1.743,1.058 C1.743,0.616 1.385,0.258 0.943,0.258 L0.943,0.258 C0.501,0.258 0.142,0.616 0.142,1.058 L0.142,1.058 Z" id="path-175"></path>
        <path d="M0.537,2.66 C0.537,3.983 1.615,5.06 2.937,5.06 L2.937,5.06 C4.261,5.06 5.338,3.983 5.338,2.66 L5.338,2.66 C5.338,1.337 4.261,0.26 2.937,0.26 L2.937,0.26 C1.615,0.26 0.537,1.337 0.537,2.66 L0.537,2.66 Z M2.138,2.66 C2.138,2.219 2.497,1.86 2.937,1.86 L2.937,1.86 C3.378,1.86 3.738,2.219 3.738,2.66 L3.738,2.66 C3.738,3.101 3.378,3.46 2.937,3.46 L2.937,3.46 C2.497,3.46 2.138,3.101 2.138,2.66 L2.138,2.66 Z" id="path-177"></path>
    </defs>
    <g id="prototipo-2" stroke="none" stroke-width="1" fill="none" fill-rule="evenodd">
        <g id="recordar-contraseña" transform="translate(-109.000000, -369.000000)">
            <g id="Group-301" transform="translate(109.000000, 368.000000)">
                <g id="Group-12" transform="translate(0.000000, 0.326000)">
                    <path d="M109.1288,174.9999 C63.5658,174.9999 26.6278,137.8379 26.6278,91.9989 C26.6278,46.1599 63.5658,8.9999 109.1288,8.9999 C154.6918,8.9999 191.6278,46.1599 191.6278,91.9989 C191.6278,137.8379 154.6918,174.9999 109.1288,174.9999" id="Fill-1" fill="#EBFBDD"></path>
                    <path d="M1.8011,70.5482 C2.0521,70.7072 2.3761,71.1522 2.8991,71.7142 C3.1651,71.9872 3.5041,72.2862 3.9491,72.5152 C4.3931,72.7462 4.9381,72.8842 5.5191,72.8822 C6.2961,72.8902 7.0031,72.6272 7.5011,72.2672 C8.2531,71.7222 8.6321,71.1142 8.9591,70.7972 C9.1191,70.6312 9.2451,70.5342 9.3571,70.4772 C9.4701,70.4222 9.5771,70.3852 9.7971,70.3832 C10.0911,70.3902 10.1871,70.4412 10.3571,70.5492 C10.6081,70.7082 10.9311,71.1522 11.4561,71.7142 C11.7221,71.9892 12.0601,72.2862 12.5061,72.5152 C12.9491,72.7462 13.4951,72.8842 14.0761,72.8822 C14.8531,72.8902 15.5581,72.6262 16.0571,72.2662 C16.8071,71.7222 17.1851,71.1142 17.5141,70.7952 C17.6731,70.6312 17.7991,70.5342 17.9101,70.4772 C18.0241,70.4222 18.1291,70.3852 18.3511,70.3832 C18.6431,70.3902 18.7391,70.4392 18.9081,70.5482 C19.1591,70.7082 19.4831,71.1522 20.0081,71.7142 C20.2741,71.9892 20.6121,72.2872 21.0571,72.5152 C21.5011,72.7462 22.0471,72.8842 22.6281,72.8822 C23.4051,72.8902 24.1111,72.6262 24.6111,72.2672 C25.3611,71.7222 25.7401,71.1142 26.0671,70.7972 C26.2281,70.6312 26.3531,70.5342 26.4651,70.4782 C26.5801,70.4222 26.6851,70.3852 26.9071,70.3832 C27.2001,70.3902 27.2961,70.4412 27.4651,70.5492 C27.7181,70.7082 28.0411,71.1522 28.5661,71.7142 C28.8321,71.9892 29.1711,72.2872 29.6161,72.5152 C30.0601,72.7462 30.6061,72.8842 31.1871,72.8822 C31.9641,72.8902 32.6711,72.6272 33.1711,72.2672 C33.9221,71.7242 34.3011,71.1152 34.6301,70.7972 C34.7901,70.6312 34.9171,70.5352 35.0291,70.4782 C35.1441,70.4222 35.2511,70.3852 35.4731,70.3832 C35.7671,70.3902 35.8661,70.4412 36.0351,70.5492 C36.2891,70.7092 36.6121,71.1542 37.1371,71.7152 C37.4051,71.9892 37.7411,72.2872 38.1881,72.5162 C38.6321,72.7462 39.1781,72.8842 39.7601,72.8822 C40.4471,72.8822 41.0041,72.3222 41.0041,71.6322 C41.0041,70.9432 40.4471,70.3832 39.7601,70.3832 C39.4661,70.3762 39.3681,70.3252 39.1981,70.2172 C38.9461,70.0582 38.6221,69.6122 38.0971,69.0512 C37.8301,68.7772 37.4911,68.4792 37.0451,68.2502 C36.6011,68.0202 36.0551,67.8812 35.4731,67.8832 C34.6971,67.8762 33.9901,68.1392 33.4901,68.4992 C32.7381,69.0422 32.3581,69.6512 32.0301,69.9692 C31.8691,70.1342 31.7421,70.2312 31.6311,70.2882 C31.5161,70.3442 31.4091,70.3812 31.1871,70.3832 C30.8931,70.3762 30.7981,70.3252 30.6281,70.2172 C30.3761,70.0582 30.0521,69.6132 29.5281,69.0522 C29.2611,68.7772 28.9231,68.4792 28.4781,68.2502 C28.0331,68.0202 27.4881,67.8812 26.9071,67.8832 C26.1301,67.8762 25.4241,68.1402 24.9241,68.4992 C24.1741,69.0432 23.7951,69.6522 23.4681,69.9692 C23.3071,70.1342 23.1821,70.2322 23.0701,70.2882 C22.9551,70.3442 22.8491,70.3812 22.6281,70.3832 C22.3361,70.3762 22.2391,70.3252 22.0701,70.2172 C21.8171,70.0582 21.4941,69.6132 20.9701,69.0522 C20.7041,68.7772 20.3671,68.4802 19.9211,68.2512 C19.4781,68.0202 18.9311,67.8812 18.3511,67.8832 C17.5741,67.8762 16.8681,68.1402 16.3691,68.5002 C15.6191,69.0432 15.2401,69.6522 14.9131,69.9702 C14.7541,70.1352 14.6271,70.2322 14.5161,70.2892 C14.4021,70.3442 14.2961,70.3812 14.0761,70.3832 C13.7831,70.3762 13.6871,70.3272 13.5171,70.2172 C13.2661,70.0582 12.9431,69.6132 12.4181,69.0522 C12.1521,68.7772 11.8151,68.4792 11.3681,68.2502 C10.9241,68.0202 10.3781,67.8812 9.7971,67.8832 C9.0211,67.8762 8.3151,68.1402 7.8161,68.5002 C7.0661,69.0432 6.6871,69.6522 6.3601,69.9692 C6.1991,70.1342 6.0731,70.2322 5.9611,70.2882 C5.8471,70.3442 5.7401,70.3812 5.5191,70.3832 C5.2261,70.3762 5.1311,70.3272 4.9611,70.2182 C4.7101,70.0592 4.3871,69.6132 3.8631,69.0522 C3.5971,68.7782 3.2601,68.4802 2.8131,68.2512 C2.3701,68.0202 1.8241,67.8812 1.2441,67.8832 C0.5571,67.8832 0.0001,68.4442 0.0001,69.1332 C0.0001,69.8232 0.5571,70.3832 1.2441,70.3832 C1.5361,70.3902 1.6321,70.4392 1.8011,70.5482" id="Fill-3" fill="#66CC10"></path>
                    <path d="M147.7733,138.7391 C148.0213,138.9091 148.3393,139.3871 148.8553,139.9891 C149.1173,140.2811 149.4503,140.6021 149.8883,140.8471 C150.3253,141.0941 150.8623,141.2431 151.4343,141.2401 C152.1993,141.2491 152.8953,140.9681 153.3863,140.5821 C154.1263,139.9981 154.4993,139.3451 154.8213,139.0061 C154.9793,138.8291 155.1033,138.7241 155.2133,138.6631 C155.3253,138.6041 155.4303,138.5651 155.6473,138.5621 C155.9363,138.5701 156.0303,138.6241 156.1983,138.7401 C156.4453,138.9101 156.7643,139.3871 157.2803,139.9891 C157.5433,140.2831 157.8753,140.6021 158.3143,140.8471 C158.7503,141.0941 159.2883,141.2431 159.8603,141.2401 C160.6253,141.2491 161.3193,140.9661 161.8113,140.5801 C162.5493,139.9981 162.9213,139.3451 163.2453,139.0041 C163.4013,138.8271 163.5253,138.7241 163.6353,138.6631 C163.7473,138.6041 163.8513,138.5651 164.0693,138.5621 C164.3573,138.5701 164.4513,138.6221 164.6183,138.7391 C164.8653,138.9101 165.1843,139.3871 165.7003,139.9891 C165.9623,140.2831 166.2953,140.6031 166.7343,140.8471 C167.1713,141.0941 167.7093,141.2431 168.2813,141.2401 C169.0463,141.2491 169.7413,140.9661 170.2333,140.5821 C170.9723,139.9981 171.3453,139.3451 171.6673,139.0061 C171.8253,138.8291 171.9493,138.7241 172.0593,138.6641 C172.1723,138.6041 172.2763,138.5651 172.4943,138.5621 C172.7833,138.5701 172.8773,138.6241 173.0443,138.7401 C173.2933,138.9101 173.6113,139.3871 174.1273,139.9891 C174.3903,140.2831 174.7233,140.6031 175.1613,140.8471 C175.5993,141.0941 176.1363,141.2431 176.7083,141.2401 C177.4743,141.2491 178.1693,140.9681 178.6623,140.5821 C179.4013,139.9991 179.7753,139.3471 180.0983,139.0061 C180.2563,138.8291 180.3813,138.7251 180.4913,138.6641 C180.6053,138.6041 180.7113,138.5651 180.9283,138.5621 C181.2183,138.5701 181.3153,138.6241 181.4823,138.7401 C181.7323,138.9121 182.0503,139.3881 182.5673,139.9901 C182.8313,140.2831 183.1633,140.6031 183.6023,140.8481 C184.0403,141.0941 184.5773,141.2431 185.1503,141.2401 C185.8263,141.2401 186.3753,140.6411 186.3753,139.9021 C186.3753,139.1621 185.8263,138.5621 185.1503,138.5621 C184.8603,138.5541 184.7643,138.5011 184.5963,138.3841 C184.3483,138.2141 184.0303,137.7361 183.5123,137.1351 C183.2503,136.8421 182.9173,136.5211 182.4763,136.2761 C182.0403,136.0301 181.5023,135.8811 180.9283,135.8841 C180.1653,135.8761 179.4683,136.1571 178.9763,136.5431 C178.2353,137.1251 177.8623,137.7781 177.5393,138.1191 C177.3803,138.2961 177.2553,138.3991 177.1453,138.4601 C177.0333,138.5211 176.9273,138.5591 176.7083,138.5621 C176.4193,138.5541 176.3253,138.5011 176.1583,138.3841 C175.9103,138.2141 175.5913,137.7371 175.0743,137.1361 C174.8123,136.8421 174.4793,136.5211 174.0413,136.2761 C173.6043,136.0301 173.0663,135.8811 172.4943,135.8841 C171.7293,135.8761 171.0343,136.1581 170.5423,136.5431 C169.8033,137.1271 169.4303,137.7791 169.1073,138.1191 C168.9503,138.2961 168.8263,138.4001 168.7163,138.4601 C168.6033,138.5211 168.4993,138.5591 168.2813,138.5621 C167.9933,138.5541 167.8983,138.5011 167.7313,138.3841 C167.4823,138.2141 167.1643,137.7371 166.6483,137.1361 C166.3863,136.8421 166.0543,136.5231 165.6153,136.2781 C165.1793,136.0301 164.6413,135.8811 164.0693,135.8841 C163.3053,135.8761 162.6093,136.1581 162.1183,136.5441 C161.3793,137.1271 161.0063,137.7791 160.6843,138.1201 C160.5273,138.2971 160.4023,138.4001 160.2943,138.4621 C160.1813,138.5211 160.0773,138.5591 159.8603,138.5621 C159.5723,138.5541 159.4773,138.5021 159.3103,138.3841 C159.0633,138.2141 158.7443,137.7371 158.2273,137.1361 C157.9653,136.8421 157.6333,136.5211 157.1933,136.2761 C156.7563,136.0301 156.2193,135.8811 155.6473,135.8841 C154.8823,135.8761 154.1873,136.1581 153.6963,136.5441 C152.9573,137.1271 152.5843,137.7791 152.2623,138.1191 C152.1043,138.2961 151.9803,138.4001 151.8703,138.4601 C151.7573,138.5211 151.6523,138.5591 151.4343,138.5621 C151.1463,138.5541 151.0523,138.5021 150.8853,138.3851 C150.6383,138.2151 150.3193,137.7371 149.8043,137.1361 C149.5423,136.8431 149.2103,136.5231 148.7703,136.2781 C148.3343,136.0301 147.7963,135.8811 147.2253,135.8841 C146.5483,135.8841 146.0003,136.4841 146.0003,137.2231 C146.0003,137.9621 146.5483,138.5621 147.2253,138.5621 C147.5123,138.5701 147.6063,138.6221 147.7733,138.7391" id="Fill-5" fill="#35CDAB"></path>
                    <g id="Group-9" transform="translate(150.000000, 0.000000)">
                        <mask id="mask-2" fill="white">
                            <use xlink:href="#path-1"></use>
                        </mask>
                        <g id="Clip-8"></g>
                        <path d="M0.1395,40.2621 C0.1395,18.3981 17.8175,0.6751 39.6235,0.6751 C61.4295,0.6751 79.1075,18.3981 79.1075,40.2621 C79.1075,62.1251 61.4295,79.8501 39.6235,79.8501 C17.8175,79.8501 0.1395,62.1251 0.1395,40.2621" id="Fill-7" fill="#D6F7F1" mask="url(#mask-2)"></path>
                    </g>
                    <path d="M135.3416,146.597 L119.3416,146.597 C118.7896,146.597 118.3416,146.15 118.3416,145.597 C118.3416,145.044 118.7896,144.597 119.3416,144.597 L135.3416,144.597 C135.8936,144.597 136.3416,145.044 136.3416,145.597 C136.3416,146.15 135.8936,146.597 135.3416,146.597" id="Fill-10" fill="#35CDAB"></path>
                </g>
                <g id="Group-15" transform="translate(118.000000, 144.326000)">
                    <mask id="mask-4" fill="white">
                        <use xlink:href="#path-3"></use>
                    </mask>
                    <g id="Clip-14"></g>
                    <polygon id="Fill-13" fill="#35CDAB" mask="url(#mask-4)" points="-4.658 7.597 23.342 7.597 23.342 -4.403 -4.658 -4.403"></polygon>
                </g>
                <path d="M139.3416,150.923 L131.3416,150.923 C130.7896,150.923 130.3416,150.476 130.3416,149.923 C130.3416,149.37 130.7896,148.923 131.3416,148.923 L139.3416,148.923 C139.8936,148.923 140.3416,149.37 140.3416,149.923 C140.3416,150.476 139.8936,150.923 139.3416,150.923" id="Fill-16" fill="#35CDAB"></path>
                <g id="Group-20" transform="translate(130.000000, 148.326000)">
                    <mask id="mask-6" fill="white">
                        <use xlink:href="#path-5"></use>
                    </mask>
                    <g id="Clip-19"></g>
                    <polygon id="Fill-18" fill="#35CDAB" mask="url(#mask-6)" points="-4.658 7.597 15.342 7.597 15.342 -4.403 -4.658 -4.403"></polygon>
                </g>
                <path d="M60.4115,92.2253 C59.8605,92.2253 59.4115,92.6733 59.4115,93.2253 C59.4115,93.7773 59.8605,94.2253 60.4115,94.2253 C60.9625,94.2253 61.4115,93.7773 61.4115,93.2253 C61.4115,92.6733 60.9625,92.2253 60.4115,92.2253 M60.4115,96.2253 C58.7575,96.2253 57.4115,94.8793 57.4115,93.2253 C57.4115,91.5713 58.7575,90.2253 60.4115,90.2253 C62.0655,90.2253 63.4115,91.5713 63.4115,93.2253 C63.4115,94.8793 62.0655,96.2253 60.4115,96.2253" id="Fill-21" fill="#66CC10"></path>
                <g id="Group-25" transform="translate(57.000000, 89.326000)">
                    <mask id="mask-8" fill="white">
                        <use xlink:href="#path-7"></use>
                    </mask>
                    <g id="Clip-24"></g>
                    <polygon id="Fill-23" fill="#66CC10" mask="url(#mask-8)" points="-4.589 11.899 11.411 11.899 11.411 -4.101 -4.589 -4.101"></polygon>
                </g>
                <g id="Group-28" transform="translate(161.000000, 95.326000)">
                    <mask id="mask-10" fill="white">
                        <use xlink:href="#path-9"></use>
                    </mask>
                    <g id="Clip-27"></g>
                    <polygon id="Fill-26" fill="#0E0F11" mask="url(#mask-10)" points="-4.856 9.978 7.895 9.978 7.895 -4.022 -4.856 -4.022"></polygon>
                </g>
                <g id="Group-31" transform="translate(103.000000, 75.326000)">
                    <mask id="mask-12" fill="white">
                        <use xlink:href="#path-11"></use>
                    </mask>
                    <g id="Clip-30"></g>
                    <polygon id="Fill-29" fill="#0E0F11" mask="url(#mask-12)" points="-4.691 34.559 8.307 34.559 8.307 -4.435 -4.691 -4.435"></polygon>
                </g>
                <g id="Group-34" transform="translate(155.000000, 109.326000)">
                    <mask id="mask-14" fill="white">
                        <use xlink:href="#path-13"></use>
                    </mask>
                    <g id="Clip-33"></g>
                    <polygon id="Fill-32" fill="#AEAFAB" mask="url(#mask-14)" points="-4.273 9.071 9.727 9.071 9.727 -4.929 -4.273 -4.929"></polygon>
                </g>
                <g id="Group-37" transform="translate(67.000000, 98.326000)">
                    <mask id="mask-16" fill="white">
                        <use xlink:href="#path-15"></use>
                    </mask>
                    <g id="Clip-36"></g>
                    <polygon id="Fill-35" fill="#AEAFAB" mask="url(#mask-16)" points="-4.454 36.237 80.033 36.237 80.033 -4.923 -4.454 -4.923"></polygon>
                </g>
                <g id="Group-40" transform="translate(66.000000, 97.326000)">
                    <mask id="mask-18" fill="white">
                        <use xlink:href="#path-17"></use>
                    </mask>
                    <g id="Clip-39"></g>
                    <polygon id="Fill-38" fill="#0E0F11" mask="url(#mask-18)" points="-4.537 38.321 82.116 38.321 82.116 -5.006 -4.537 -5.006"></polygon>
                </g>
                <g id="Group-43" transform="translate(132.000000, 102.326000)">
                    <mask id="mask-20" fill="white">
                        <use xlink:href="#path-19"></use>
                    </mask>
                    <g id="Clip-42"></g>
                    <polygon id="Fill-41" fill="#FFFFFE" mask="url(#mask-20)" points="-4.464 10.575 10.7 10.575 10.7 -4.59 -4.464 -4.59"></polygon>
                </g>
                <g id="Group-46" transform="translate(131.000000, 101.326000)">
                    <mask id="mask-22" fill="white">
                        <use xlink:href="#path-21"></use>
                    </mask>
                    <g id="Clip-45"></g>
                    <polygon id="Fill-44" fill="#0E0F11" mask="url(#mask-22)" points="-4.548 12.658 12.783 12.658 12.783 -4.673 -4.548 -4.673"></polygon>
                </g>
                <g id="Group-49" transform="translate(124.000000, 102.326000)">
                    <mask id="mask-24" fill="white">
                        <use xlink:href="#path-23"></use>
                    </mask>
                    <g id="Clip-48"></g>
                    <polygon id="Fill-47" fill="#FFFFFE" mask="url(#mask-24)" points="-5.13 10.575 10.035 10.575 10.035 -4.59 -5.13 -4.59"></polygon>
                </g>
                <g id="Group-52" transform="translate(123.000000, 101.326000)">
                    <mask id="mask-26" fill="white">
                        <use xlink:href="#path-25"></use>
                    </mask>
                    <g id="Clip-51"></g>
                    <polygon id="Fill-50" fill="#0E0F11" mask="url(#mask-26)" points="-5.213 12.658 12.118 12.658 12.118 -4.673 -5.213 -4.673"></polygon>
                </g>
                <g id="Group-55" transform="translate(115.000000, 102.326000)">
                    <mask id="mask-28" fill="white">
                        <use xlink:href="#path-27"></use>
                    </mask>
                    <g id="Clip-54"></g>
                    <polygon id="Fill-53" fill="#FFFFFE" mask="url(#mask-28)" points="-4.795 10.575 10.369 10.575 10.369 -4.59 -4.795 -4.59"></polygon>
                </g>
                <g id="Group-58" transform="translate(114.000000, 101.326000)">
                    <mask id="mask-30" fill="white">
                        <use xlink:href="#path-29"></use>
                    </mask>
                    <g id="Clip-57"></g>
                    <polygon id="Fill-56" fill="#0E0F11" mask="url(#mask-30)" points="-4.878 12.658 12.453 12.658 12.453 -4.673 -4.878 -4.673"></polygon>
                </g>
                <g id="Group-61" transform="translate(106.000000, 102.326000)">
                    <mask id="mask-32" fill="white">
                        <use xlink:href="#path-31"></use>
                    </mask>
                    <g id="Clip-60"></g>
                    <polygon id="Fill-59" fill="#FFFFFE" mask="url(#mask-32)" points="-4.46 10.575 10.705 10.575 10.705 -4.59 -4.46 -4.59"></polygon>
                </g>
                <g id="Group-64" transform="translate(105.000000, 101.326000)">
                    <mask id="mask-34" fill="white">
                        <use xlink:href="#path-33"></use>
                    </mask>
                    <g id="Clip-63"></g>
                    <polygon id="Fill-62" fill="#0E0F11" mask="url(#mask-34)" points="-4.543 12.658 12.788 12.658 12.788 -4.673 -4.543 -4.673"></polygon>
                </g>
                <g id="Group-67" transform="translate(98.000000, 102.326000)">
                    <mask id="mask-36" fill="white">
                        <use xlink:href="#path-35"></use>
                    </mask>
                    <g id="Clip-66"></g>
                    <polygon id="Fill-65" fill="#FFFFFE" mask="url(#mask-36)" points="-5.126 10.575 10.039 10.575 10.039 -4.59 -5.126 -4.59"></polygon>
                </g>
                <g id="Group-70" transform="translate(97.000000, 101.326000)">
                    <mask id="mask-38" fill="white">
                        <use xlink:href="#path-37"></use>
                    </mask>
                    <g id="Clip-69"></g>
                    <polygon id="Fill-68" fill="#0E0F11" mask="url(#mask-38)" points="-5.209 12.658 12.122 12.658 12.122 -4.673 -5.209 -4.673"></polygon>
                </g>
                <g id="Group-73" transform="translate(89.000000, 102.326000)">
                    <mask id="mask-40" fill="white">
                        <use xlink:href="#path-39"></use>
                    </mask>
                    <g id="Clip-72"></g>
                    <polygon id="Fill-71" fill="#FFFFFE" mask="url(#mask-40)" points="-4.791 10.575 10.373 10.575 10.373 -4.59 -4.791 -4.59"></polygon>
                </g>
                <g id="Group-76" transform="translate(88.000000, 101.326000)">
                    <mask id="mask-42" fill="white">
                        <use xlink:href="#path-41"></use>
                    </mask>
                    <g id="Clip-75"></g>
                    <polygon id="Fill-74" fill="#0E0F11" mask="url(#mask-42)" points="-4.874 12.658 12.457 12.658 12.457 -4.673 -4.874 -4.673"></polygon>
                </g>
                <g id="Group-79" transform="translate(80.000000, 102.326000)">
                    <mask id="mask-44" fill="white">
                        <use xlink:href="#path-43"></use>
                    </mask>
                    <g id="Clip-78"></g>
                    <polygon id="Fill-77" fill="#FFFFFE" mask="url(#mask-44)" points="-4.456 10.575 10.709 10.575 10.709 -4.59 -4.456 -4.59"></polygon>
                </g>
                <g id="Group-82" transform="translate(79.000000, 101.326000)">
                    <mask id="mask-46" fill="white">
                        <use xlink:href="#path-45"></use>
                    </mask>
                    <g id="Clip-81"></g>
                    <polygon id="Fill-80" fill="#0E0F11" mask="url(#mask-46)" points="-4.539 12.658 12.792 12.658 12.792 -4.673 -4.539 -4.673"></polygon>
                </g>
                <g id="Group-85" transform="translate(72.000000, 102.326000)">
                    <mask id="mask-48" fill="white">
                        <use xlink:href="#path-47"></use>
                    </mask>
                    <g id="Clip-84"></g>
                    <polygon id="Fill-83" fill="#FFFFFE" mask="url(#mask-48)" points="-5.121 10.575 10.043 10.575 10.043 -4.59 -5.121 -4.59"></polygon>
                </g>
                <g id="Group-88" transform="translate(71.000000, 101.326000)">
                    <mask id="mask-50" fill="white">
                        <use xlink:href="#path-49"></use>
                    </mask>
                    <g id="Clip-87"></g>
                    <polygon id="Fill-86" fill="#0E0F11" mask="url(#mask-50)" points="-5.205 12.658 12.126 12.658 12.126 -4.673 -5.205 -4.673"></polygon>
                </g>
                <g id="Group-91" transform="translate(132.000000, 111.326000)">
                    <mask id="mask-52" fill="white">
                        <use xlink:href="#path-51"></use>
                    </mask>
                    <g id="Clip-90"></g>
                    <polygon id="Fill-89" fill="#FFFFFE" mask="url(#mask-52)" points="-4.464 10.239 10.7 10.239 10.7 -4.925 -4.464 -4.925"></polygon>
                </g>
                <g id="Group-94" transform="translate(131.000000, 110.326000)">
                    <mask id="mask-54" fill="white">
                        <use xlink:href="#path-53"></use>
                    </mask>
                    <g id="Clip-93"></g>
                    <polygon id="Fill-92" fill="#0E0F11" mask="url(#mask-54)" points="-4.548 12.323 12.783 12.323 12.783 -5.008 -4.548 -5.008"></polygon>
                </g>
                <g id="Group-97" transform="translate(124.000000, 111.326000)">
                    <mask id="mask-56" fill="white">
                        <use xlink:href="#path-55"></use>
                    </mask>
                    <g id="Clip-96"></g>
                    <polygon id="Fill-95" fill="#FFFFFE" mask="url(#mask-56)" points="-5.13 10.239 10.035 10.239 10.035 -4.925 -5.13 -4.925"></polygon>
                </g>
                <g id="Group-100" transform="translate(123.000000, 110.326000)">
                    <mask id="mask-58" fill="white">
                        <use xlink:href="#path-57"></use>
                    </mask>
                    <g id="Clip-99"></g>
                    <polygon id="Fill-98" fill="#0E0F11" mask="url(#mask-58)" points="-5.213 12.323 12.118 12.323 12.118 -5.008 -5.213 -5.008"></polygon>
                </g>
                <g id="Group-103" transform="translate(115.000000, 111.326000)">
                    <mask id="mask-60" fill="white">
                        <use xlink:href="#path-59"></use>
                    </mask>
                    <g id="Clip-102"></g>
                    <polygon id="Fill-101" fill="#FFFFFE" mask="url(#mask-60)" points="-4.795 10.239 10.369 10.239 10.369 -4.925 -4.795 -4.925"></polygon>
                </g>
                <g id="Group-106" transform="translate(114.000000, 110.326000)">
                    <mask id="mask-62" fill="white">
                        <use xlink:href="#path-61"></use>
                    </mask>
                    <g id="Clip-105"></g>
                    <polygon id="Fill-104" fill="#0E0F11" mask="url(#mask-62)" points="-4.878 12.323 12.453 12.323 12.453 -5.008 -4.878 -5.008"></polygon>
                </g>
                <g id="Group-109" transform="translate(106.000000, 111.326000)">
                    <mask id="mask-64" fill="white">
                        <use xlink:href="#path-63"></use>
                    </mask>
                    <g id="Clip-108"></g>
                    <polygon id="Fill-107" fill="#FFFFFE" mask="url(#mask-64)" points="-4.46 10.239 10.705 10.239 10.705 -4.925 -4.46 -4.925"></polygon>
                </g>
                <g id="Group-112" transform="translate(105.000000, 110.326000)">
                    <mask id="mask-66" fill="white">
                        <use xlink:href="#path-65"></use>
                    </mask>
                    <g id="Clip-111"></g>
                    <polygon id="Fill-110" fill="#0E0F11" mask="url(#mask-66)" points="-4.543 12.323 12.788 12.323 12.788 -5.008 -4.543 -5.008"></polygon>
                </g>
                <g id="Group-115" transform="translate(98.000000, 111.326000)">
                    <mask id="mask-68" fill="white">
                        <use xlink:href="#path-67"></use>
                    </mask>
                    <g id="Clip-114"></g>
                    <polygon id="Fill-113" fill="#FFFFFE" mask="url(#mask-68)" points="-5.126 10.239 10.039 10.239 10.039 -4.925 -5.126 -4.925"></polygon>
                </g>
                <g id="Group-118" transform="translate(97.000000, 110.326000)">
                    <mask id="mask-70" fill="white">
                        <use xlink:href="#path-69"></use>
                    </mask>
                    <g id="Clip-117"></g>
                    <polygon id="Fill-116" fill="#0E0F11" mask="url(#mask-70)" points="-5.209 12.323 12.122 12.323 12.122 -5.008 -5.209 -5.008"></polygon>
                </g>
                <g id="Group-121" transform="translate(89.000000, 111.326000)">
                    <mask id="mask-72" fill="white">
                        <use xlink:href="#path-71"></use>
                    </mask>
                    <g id="Clip-120"></g>
                    <polygon id="Fill-119" fill="#FFFFFE" mask="url(#mask-72)" points="-4.791 10.239 10.373 10.239 10.373 -4.925 -4.791 -4.925"></polygon>
                </g>
                <g id="Group-124" transform="translate(88.000000, 110.326000)">
                    <mask id="mask-74" fill="white">
                        <use xlink:href="#path-73"></use>
                    </mask>
                    <g id="Clip-123"></g>
                    <polygon id="Fill-122" fill="#0E0F11" mask="url(#mask-74)" points="-4.874 12.323 12.457 12.323 12.457 -5.008 -4.874 -5.008"></polygon>
                </g>
                <g id="Group-127" transform="translate(80.000000, 111.326000)">
                    <mask id="mask-76" fill="white">
                        <use xlink:href="#path-75"></use>
                    </mask>
                    <g id="Clip-126"></g>
                    <polygon id="Fill-125" fill="#FFFFFE" mask="url(#mask-76)" points="-4.456 10.239 10.709 10.239 10.709 -4.925 -4.456 -4.925"></polygon>
                </g>
                <g id="Group-130" transform="translate(79.000000, 110.326000)">
                    <mask id="mask-78" fill="white">
                        <use xlink:href="#path-77"></use>
                    </mask>
                    <g id="Clip-129"></g>
                    <polygon id="Fill-128" fill="#0E0F11" mask="url(#mask-78)" points="-4.539 12.323 12.792 12.323 12.792 -5.008 -4.539 -5.008"></polygon>
                </g>
                <g id="Group-133" transform="translate(72.000000, 111.326000)">
                    <mask id="mask-80" fill="white">
                        <use xlink:href="#path-79"></use>
                    </mask>
                    <g id="Clip-132"></g>
                    <polygon id="Fill-131" fill="#FFFFFE" mask="url(#mask-80)" points="-5.121 10.239 10.043 10.239 10.043 -4.925 -5.121 -4.925"></polygon>
                </g>
                <g id="Group-136" transform="translate(71.000000, 110.326000)">
                    <mask id="mask-82" fill="white">
                        <use xlink:href="#path-81"></use>
                    </mask>
                    <g id="Clip-135"></g>
                    <polygon id="Fill-134" fill="#0E0F11" mask="url(#mask-82)" points="-5.205 12.323 12.126 12.323 12.126 -5.008 -5.205 -5.008"></polygon>
                </g>
                <g id="Group-139" transform="translate(132.000000, 120.326000)">
                    <mask id="mask-84" fill="white">
                        <use xlink:href="#path-83"></use>
                    </mask>
                    <g id="Clip-138"></g>
                    <polygon id="Fill-137" fill="#FFFFFE" mask="url(#mask-84)" points="-4.464 9.905 10.7 9.905 10.7 -5.26 -4.464 -5.26"></polygon>
                </g>
                <g id="Group-142" transform="translate(131.000000, 119.326000)">
                    <mask id="mask-86" fill="white">
                        <use xlink:href="#path-85"></use>
                    </mask>
                    <g id="Clip-141"></g>
                    <polygon id="Fill-140" fill="#0E0F11" mask="url(#mask-86)" points="-4.548 11.988 12.783 11.988 12.783 -5.343 -4.548 -5.343"></polygon>
                </g>
                <g id="Group-145" transform="translate(124.000000, 120.326000)">
                    <mask id="mask-88" fill="white">
                        <use xlink:href="#path-87"></use>
                    </mask>
                    <g id="Clip-144"></g>
                    <polygon id="Fill-143" fill="#FFFFFE" mask="url(#mask-88)" points="-5.13 9.905 10.035 9.905 10.035 -5.26 -5.13 -5.26"></polygon>
                </g>
                <g id="Group-148" transform="translate(123.000000, 119.326000)">
                    <mask id="mask-90" fill="white">
                        <use xlink:href="#path-89"></use>
                    </mask>
                    <g id="Clip-147"></g>
                    <polygon id="Fill-146" fill="#0E0F11" mask="url(#mask-90)" points="-5.213 11.988 12.118 11.988 12.118 -5.343 -5.213 -5.343"></polygon>
                </g>
                <g id="Group-151" transform="translate(115.000000, 120.326000)">
                    <mask id="mask-92" fill="white">
                        <use xlink:href="#path-91"></use>
                    </mask>
                    <g id="Clip-150"></g>
                    <polygon id="Fill-149" fill="#FFFFFE" mask="url(#mask-92)" points="-4.795 9.905 10.369 9.905 10.369 -5.26 -4.795 -5.26"></polygon>
                </g>
                <g id="Group-154" transform="translate(114.000000, 119.326000)">
                    <mask id="mask-94" fill="white">
                        <use xlink:href="#path-93"></use>
                    </mask>
                    <g id="Clip-153"></g>
                    <polygon id="Fill-152" fill="#0E0F11" mask="url(#mask-94)" points="-4.878 11.988 12.453 11.988 12.453 -5.343 -4.878 -5.343"></polygon>
                </g>
                <g id="Group-157" transform="translate(106.000000, 120.326000)">
                    <mask id="mask-96" fill="white">
                        <use xlink:href="#path-95"></use>
                    </mask>
                    <g id="Clip-156"></g>
                    <polygon id="Fill-155" fill="#FFFFFE" mask="url(#mask-96)" points="-4.46 9.905 10.705 9.905 10.705 -5.26 -4.46 -5.26"></polygon>
                </g>
                <g id="Group-160" transform="translate(105.000000, 119.326000)">
                    <mask id="mask-98" fill="white">
                        <use xlink:href="#path-97"></use>
                    </mask>
                    <g id="Clip-159"></g>
                    <polygon id="Fill-158" fill="#0E0F11" mask="url(#mask-98)" points="-4.543 11.988 12.788 11.988 12.788 -5.343 -4.543 -5.343"></polygon>
                </g>
                <g id="Group-163" transform="translate(98.000000, 120.326000)">
                    <mask id="mask-100" fill="white">
                        <use xlink:href="#path-99"></use>
                    </mask>
                    <g id="Clip-162"></g>
                    <polygon id="Fill-161" fill="#FFFFFE" mask="url(#mask-100)" points="-5.126 9.905 10.039 9.905 10.039 -5.26 -5.126 -5.26"></polygon>
                </g>
                <g id="Group-166" transform="translate(97.000000, 119.326000)">
                    <mask id="mask-102" fill="white">
                        <use xlink:href="#path-101"></use>
                    </mask>
                    <g id="Clip-165"></g>
                    <polygon id="Fill-164" fill="#0E0F11" mask="url(#mask-102)" points="-5.209 11.988 12.122 11.988 12.122 -5.343 -5.209 -5.343"></polygon>
                </g>
                <g id="Group-169" transform="translate(89.000000, 120.326000)">
                    <mask id="mask-104" fill="white">
                        <use xlink:href="#path-103"></use>
                    </mask>
                    <g id="Clip-168"></g>
                    <polygon id="Fill-167" fill="#FFFFFE" mask="url(#mask-104)" points="-4.791 9.905 10.373 9.905 10.373 -5.26 -4.791 -5.26"></polygon>
                </g>
                <g id="Group-172" transform="translate(88.000000, 119.326000)">
                    <mask id="mask-106" fill="white">
                        <use xlink:href="#path-105"></use>
                    </mask>
                    <g id="Clip-171"></g>
                    <polygon id="Fill-170" fill="#0E0F11" mask="url(#mask-106)" points="-4.874 11.988 12.457 11.988 12.457 -5.343 -4.874 -5.343"></polygon>
                </g>
                <g id="Group-175" transform="translate(80.000000, 120.326000)">
                    <mask id="mask-108" fill="white">
                        <use xlink:href="#path-107"></use>
                    </mask>
                    <g id="Clip-174"></g>
                    <polygon id="Fill-173" fill="#FFFFFE" mask="url(#mask-108)" points="-4.456 9.905 10.709 9.905 10.709 -5.26 -4.456 -5.26"></polygon>
                </g>
                <g id="Group-178" transform="translate(79.000000, 119.326000)">
                    <mask id="mask-110" fill="white">
                        <use xlink:href="#path-109"></use>
                    </mask>
                    <g id="Clip-177"></g>
                    <polygon id="Fill-176" fill="#0E0F11" mask="url(#mask-110)" points="-4.539 11.988 12.792 11.988 12.792 -5.343 -4.539 -5.343"></polygon>
                </g>
                <g id="Group-181" transform="translate(72.000000, 120.326000)">
                    <mask id="mask-112" fill="white">
                        <use xlink:href="#path-111"></use>
                    </mask>
                    <g id="Clip-180"></g>
                    <polygon id="Fill-179" fill="#FFFFFE" mask="url(#mask-112)" points="-5.121 9.905 10.043 9.905 10.043 -5.26 -5.121 -5.26"></polygon>
                </g>
                <g id="Group-184" transform="translate(71.000000, 119.326000)">
                    <mask id="mask-114" fill="white">
                        <use xlink:href="#path-113"></use>
                    </mask>
                    <g id="Clip-183"></g>
                    <polygon id="Fill-182" fill="#0E0F11" mask="url(#mask-114)" points="-5.205 11.988 12.126 11.988 12.126 -5.343 -5.205 -5.343"></polygon>
                </g>
                <g id="Group-187" transform="translate(89.000000, 120.326000)">
                    <mask id="mask-116" fill="white">
                        <use xlink:href="#path-115"></use>
                    </mask>
                    <g id="Clip-186"></g>
                    <polygon id="Fill-185" fill="#FFFFFE" mask="url(#mask-116)" points="-4.791 9.905 36.369 9.905 36.369 -5.26 -4.791 -5.26"></polygon>
                </g>
                <g id="Group-190" transform="translate(88.000000, 119.326000)">
                    <mask id="mask-118" fill="white">
                        <use xlink:href="#path-117"></use>
                    </mask>
                    <g id="Clip-189"></g>
                    <polygon id="Fill-188" fill="#0E0F11" mask="url(#mask-118)" points="-4.874 11.988 38.453 11.988 38.453 -5.343 -4.874 -5.343"></polygon>
                </g>
                <g id="Group-193" transform="translate(128.000000, 64.326000)">
                    <mask id="mask-120" fill="white">
                        <use xlink:href="#path-119"></use>
                    </mask>
                    <g id="Clip-192"></g>
                    <polygon id="Fill-191" fill="#0E0F11" mask="url(#mask-120)" points="-4.923 7.691 12.408 7.691 12.408 -5.307 -4.923 -5.307"></polygon>
                </g>
                <g id="Group-196" transform="translate(132.000000, 55.326000)">
                    <mask id="mask-122" fill="white">
                        <use xlink:href="#path-121"></use>
                    </mask>
                    <g id="Clip-195"></g>
                    <polygon id="Fill-194" fill="#0E0F11" mask="url(#mask-122)" points="-5.196 16.712 16.467 16.712 16.467 -4.951 -5.196 -4.951"></polygon>
                </g>
                <g id="Group-199" transform="translate(141.000000, 47.326000)">
                    <mask id="mask-124" fill="white">
                        <use xlink:href="#path-123"></use>
                    </mask>
                    <g id="Clip-198"></g>
                    <polygon id="Fill-197" fill="#0E0F11" mask="url(#mask-124)" points="-4.944 15.544 15.056 15.544 15.056 -4.456 -4.944 -4.456"></polygon>
                </g>
                <g id="Group-202" transform="translate(148.000000, 102.326000)">
                    <mask id="mask-126" fill="white">
                        <use xlink:href="#path-125"></use>
                    </mask>
                    <g id="Clip-201"></g>
                    <polygon id="Fill-200" fill="#0E0F11" mask="url(#mask-126)" points="-4.273 35.071 23.727 35.071 23.727 -4.929 -4.273 -4.929"></polygon>
                </g>
                <g id="Group-205" transform="translate(154.000000, 108.326000)">
                    <mask id="mask-128" fill="white">
                        <use xlink:href="#path-127"></use>
                    </mask>
                    <g id="Clip-204"></g>
                    <polygon id="Fill-203" fill="#0E0F11" mask="url(#mask-128)" points="-4.273 11.071 11.727 11.071 11.727 -4.929 -4.273 -4.929"></polygon>
                </g>
                <g id="Group-208" transform="translate(156.000000, 94.326000)">
                    <mask id="mask-130" fill="white">
                        <use xlink:href="#path-129"></use>
                    </mask>
                    <g id="Clip-207"></g>
                    <polygon id="Fill-206" fill="#0E0F11" mask="url(#mask-130)" points="-4.273 11.071 7.727 11.071 7.727 -4.929 -4.273 -4.929"></polygon>
                </g>
                <g id="Group-211" transform="translate(151.000000, 96.326000)">
                    <mask id="mask-132" fill="white">
                        <use xlink:href="#path-131"></use>
                    </mask>
                    <g id="Clip-210"></g>
                    <polygon id="Fill-209" fill="#0E0F11" mask="url(#mask-132)" points="-4.023 9.072 8.728 9.072 8.728 -4.928 -4.023 -4.928"></polygon>
                </g>
                <g id="Group-214" transform="translate(149.000000, 47.326000)">
                    <mask id="mask-134" fill="white">
                        <use xlink:href="#path-133"></use>
                    </mask>
                    <g id="Clip-213"></g>
                    <polygon id="Fill-212" fill="#0E0F11" mask="url(#mask-134)" points="-4.855 7.55 49.145 7.55 49.145 -4.45 -4.855 -4.45"></polygon>
                </g>
                <g id="Group-220" transform="translate(81.000000, 55.326000)">
                    <polygon id="Fill-215" fill="#FFFFFF" points="0.249 21.435 47.556 21.435 47.556 0.124 0.249 0.124"></polygon>
                    <polygon id="Fill-217" fill="#66CC10" points="13.8329 5.9754 13.4399 9.5044 17.0169 8.5064 17.3329 10.9234 14.0729 11.1534 16.2109 14.0024 14.0339 15.1634 12.5389 12.1604 11.2249 15.1434 8.9609 14.0024 11.0809 11.1534 7.8389 10.9044 8.2129 8.5064 11.7129 9.5044 11.3199 5.9754"></polygon>
                    <polygon id="Fill-218" fill="#66CC10" points="24.5355 5.9754 24.1415 9.5044 27.7185 8.5064 28.0355 10.9234 24.7755 11.1534 26.9125 14.0024 24.7355 15.1634 23.2405 12.1604 21.9265 15.1434 19.6625 14.0024 21.7825 11.1534 18.5415 10.9044 18.9155 8.5064 22.4155 9.5044 22.0225 5.9754"></polygon>
                    <polygon id="Fill-219" fill="#66CC10" points="35.2367 5.9754 34.8427 9.5044 38.4207 8.5064 38.7367 10.9234 35.4767 11.1534 37.6157 14.0024 35.4387 15.1634 33.9427 12.1604 32.6287 15.1434 30.3657 14.0024 32.4847 11.1534 29.2427 10.9044 29.6167 8.5064 33.1167 9.5044 32.7247 5.9754"></polygon>
                </g>
                <g id="Group-223" transform="translate(79.000000, 53.326000)">
                    <mask id="mask-136" fill="white">
                        <use xlink:href="#path-135"></use>
                    </mask>
                    <g id="Clip-222"></g>
                    <polygon id="Fill-221" fill="#0E0F11" mask="url(#mask-136)" points="-4.463 30.177 56.194 30.177 56.194 -4.484 -4.463 -4.484"></polygon>
                </g>
                <g id="Group-226" transform="translate(173.000000, 36.326000)">
                    <mask id="mask-138" fill="white">
                        <use xlink:href="#path-137"></use>
                    </mask>
                    <g id="Clip-225"></g>
                    <polygon id="Fill-224" fill="#35CDAB" mask="url(#mask-138)" points="-3.062 26.463 33.743 26.463 33.743 -3.941 -3.062 -3.941"></polygon>
                </g>
                <g id="Group-229" transform="translate(173.000000, 35.326000)">
                    <mask id="mask-140" fill="white">
                        <use xlink:href="#path-139"></use>
                    </mask>
                    <g id="Clip-228"></g>
                    <polygon id="Fill-227" fill="#0E0F11" mask="url(#mask-140)" points="-3.861 28.263 34.543 28.263 34.543 -3.741 -3.861 -3.741"></polygon>
                </g>
                <g id="Group-232" transform="translate(176.000000, 16.326000)">
                    <mask id="mask-142" fill="white">
                        <use xlink:href="#path-141"></use>
                    </mask>
                    <g id="Clip-231"></g>
                    <polygon id="Fill-230" fill="#0E0F11" mask="url(#mask-142)" points="-3.661 15.259 15.541 15.259 15.541 -3.943 -3.661 -3.943"></polygon>
                </g>
                <g id="Group-235" transform="translate(189.000000, 16.326000)">
                    <mask id="mask-144" fill="white">
                        <use xlink:href="#path-143"></use>
                    </mask>
                    <g id="Clip-234"></g>
                    <polygon id="Fill-233" fill="#0E0F11" mask="url(#mask-144)" points="-3.86 15.259 15.342 15.259 15.342 -3.943 -3.86 -3.943"></polygon>
                </g>
                <g id="Group-238" transform="translate(198.000000, 25.326000)">
                    <mask id="mask-146" fill="white">
                        <use xlink:href="#path-145"></use>
                    </mask>
                    <g id="Clip-237"></g>
                    <polygon id="Fill-236" fill="#0E0F11" mask="url(#mask-146)" points="-3.258 15.86 6.343 15.86 6.343 -3.342 -3.258 -3.342"></polygon>
                </g>
                <g id="Group-241" transform="translate(176.000000, 25.326000)">
                    <mask id="mask-148" fill="white">
                        <use xlink:href="#path-147"></use>
                    </mask>
                    <g id="Clip-240"></g>
                    <polygon id="Fill-239" fill="#0E0F11" mask="url(#mask-148)" points="-3.661 15.86 5.941 15.86 5.941 -3.342 -3.661 -3.342"></polygon>
                </g>
                <g id="Group-244" transform="translate(179.000000, 25.326000)">
                    <mask id="mask-150" fill="white">
                        <use xlink:href="#path-149"></use>
                    </mask>
                    <g id="Clip-243"></g>
                    <polygon id="Fill-242" fill="#0E0F11" mask="url(#mask-150)" points="-3.461 15.86 6.14 15.86 6.14 -3.342 -3.461 -3.342"></polygon>
                </g>
                <g id="Group-247" transform="translate(195.000000, 25.326000)">
                    <mask id="mask-152" fill="white">
                        <use xlink:href="#path-151"></use>
                    </mask>
                    <g id="Clip-246"></g>
                    <polygon id="Fill-245" fill="#0E0F11" mask="url(#mask-152)" points="-3.459 15.86 6.143 15.86 6.143 -3.342 -3.459 -3.342"></polygon>
                </g>
                <g id="Group-250" transform="translate(179.000000, 19.326000)">
                    <mask id="mask-154" fill="white">
                        <use xlink:href="#path-153"></use>
                    </mask>
                    <g id="Clip-249"></g>
                    <polygon id="Fill-248" fill="#0E0F11" mask="url(#mask-154)" points="-3.461 12.259 12.54 12.259 12.54 -3.743 -3.461 -3.743"></polygon>
                </g>
                <g id="Group-253" transform="translate(189.000000, 19.326000)">
                    <mask id="mask-156" fill="white">
                        <use xlink:href="#path-155"></use>
                    </mask>
                    <g id="Clip-252"></g>
                    <polygon id="Fill-251" fill="#0E0F11" mask="url(#mask-156)" points="-3.86 12.259 12.142 12.259 12.142 -3.743 -3.86 -3.743"></polygon>
                </g>
                <g id="Group-256" transform="translate(185.000000, 19.326000)">
                    <mask id="mask-158" fill="white">
                        <use xlink:href="#path-157"></use>
                    </mask>
                    <g id="Clip-255"></g>
                    <polygon id="Fill-254" fill="#0E0F11" mask="url(#mask-158)" points="-3.06 5.858 9.742 5.858 9.742 -3.743 -3.06 -3.743"></polygon>
                </g>
                <g id="Group-259" transform="translate(185.000000, 16.326000)">
                    <mask id="mask-160" fill="white">
                        <use xlink:href="#path-159"></use>
                    </mask>
                    <g id="Clip-258"></g>
                    <polygon id="Fill-257" fill="#0E0F11" mask="url(#mask-160)" points="-3.06 5.658 9.742 5.658 9.742 -3.943 -3.06 -3.943"></polygon>
                </g>
                <g id="Group-262" transform="translate(179.000000, 35.326000)">
                    <mask id="mask-162" fill="white">
                        <use xlink:href="#path-161"></use>
                    </mask>
                    <g id="Clip-261"></g>
                    <polygon id="Fill-260" fill="#0E0F11" mask="url(#mask-162)" points="-3.461 28.263 6.14 28.263 6.14 -3.741 -3.461 -3.741"></polygon>
                </g>
                <g id="Group-265" transform="translate(195.000000, 35.326000)">
                    <mask id="mask-164" fill="white">
                        <use xlink:href="#path-163"></use>
                    </mask>
                    <g id="Clip-264"></g>
                    <polygon id="Fill-263" fill="#0E0F11" mask="url(#mask-164)" points="-3.459 28.263 6.143 28.263 6.143 -3.741 -3.459 -3.741"></polygon>
                </g>
                <path d="M209.1434,27.5847 C207.8204,27.5847 206.7434,28.6617 206.7434,29.9847 C206.7434,31.3087 207.8204,32.3857 209.1434,32.3857 C210.4664,32.3857 211.5434,31.3087 211.5434,29.9847 C211.5434,28.6617 210.4664,27.5847 209.1434,27.5847 M209.1434,33.9857 C206.9374,33.9857 205.1424,32.1907 205.1424,29.9847 C205.1424,27.7787 206.9374,25.9847 209.1434,25.9847 C211.3494,25.9847 213.1444,27.7787 213.1444,29.9847 C213.1444,32.1907 211.3494,33.9857 209.1434,33.9857" id="Fill-266" fill="#66CC10"></path>
                <g id="Group-270" transform="translate(205.000000, 25.326000)">
                    <mask id="mask-166" fill="white">
                        <use xlink:href="#path-165"></use>
                    </mask>
                    <g id="Clip-269"></g>
                    <polygon id="Fill-268" fill="#66CC10" mask="url(#mask-166)" points="-3.858 12.66 12.144 12.66 12.144 -3.342 -3.858 -3.342"></polygon>
                </g>
                <path d="M209.1434,43.5866 C208.7014,43.5866 208.3434,43.2286 208.3434,42.7866 L208.3434,33.1856 C208.3434,32.7436 208.7014,32.3856 209.1434,32.3856 C209.5854,32.3856 209.9434,32.7436 209.9434,33.1856 L209.9434,42.7866 C209.9434,43.2286 209.5854,43.5866 209.1434,43.5866" id="Fill-271" fill="#66CC10"></path>
                <g id="Group-275" transform="translate(208.000000, 32.326000)">
                    <mask id="mask-168" fill="white">
                        <use xlink:href="#path-167"></use>
                    </mask>
                    <g id="Clip-274"></g>
                    <polygon id="Fill-273" fill="#66CC10" mask="url(#mask-168)" points="-3.657 15.261 5.945 15.261 5.945 -3.941 -3.657 -3.941"></polygon>
                </g>
                <path d="M210.744,40.3864 L209.143,40.3864 C208.701,40.3864 208.344,40.0284 208.344,39.5864 C208.344,39.1444 208.701,38.7864 209.143,38.7864 L210.744,38.7864 C211.186,38.7864 211.544,39.1444 211.544,39.5864 C211.544,40.0284 211.186,40.3864 210.744,40.3864" id="Fill-276" fill="#66CC10"></path>
                <g id="Group-280" transform="translate(208.000000, 38.326000)">
                    <mask id="mask-170" fill="white">
                        <use xlink:href="#path-169"></use>
                    </mask>
                    <g id="Clip-279"></g>
                    <polygon id="Fill-278" fill="#66CC10" mask="url(#mask-170)" points="-3.657 6.061 7.544 6.061 7.544 -3.54 -3.657 -3.54"></polygon>
                </g>
                <path d="M212.3436,24.3845 C211.9016,24.3845 211.5436,24.0265 211.5436,23.5845 L211.5436,20.3845 C211.5436,19.9425 211.9016,19.5835 212.3436,19.5835 C212.7856,19.5835 213.1446,19.9425 213.1446,20.3845 L213.1446,23.5845 C213.1446,24.0265 212.7856,24.3845 212.3436,24.3845" id="Fill-281" fill="#35CDAB"></path>
                <g id="Group-285" transform="translate(211.000000, 19.326000)">
                    <mask id="mask-172" fill="white">
                        <use xlink:href="#path-171"></use>
                    </mask>
                    <g id="Clip-284"></g>
                    <polygon id="Fill-283" fill="#35CDAB" mask="url(#mask-172)" points="-3.457 9.059 6.145 9.059 6.145 -3.743 -3.457 -3.743"></polygon>
                </g>
                <path d="M209.1434,22.7839 C208.7014,22.7839 208.3434,22.4259 208.3434,21.9839 L208.3434,18.7839 C208.3434,18.3419 208.7014,17.9839 209.1434,17.9839 C209.5854,17.9839 209.9434,18.3419 209.9434,18.7839 L209.9434,21.9839 C209.9434,22.4259 209.5854,22.7839 209.1434,22.7839" id="Fill-286" fill="#35CDAB"></path>
                <g id="Group-290" transform="translate(208.000000, 17.326000)">
                    <mask id="mask-174" fill="white">
                        <use xlink:href="#path-173"></use>
                    </mask>
                    <g id="Clip-289"></g>
                    <polygon id="Fill-288" fill="#35CDAB" mask="url(#mask-174)" points="-3.657 9.459 5.945 9.459 5.945 -3.343 -3.657 -3.343"></polygon>
                </g>
                <path d="M205.9432,24.3845 C205.5012,24.3845 205.1422,24.0265 205.1422,23.5845 L205.1422,20.3845 C205.1422,19.9425 205.5012,19.5835 205.9432,19.5835 C206.3852,19.5835 206.7432,19.9425 206.7432,20.3845 L206.7432,23.5845 C206.7432,24.0265 206.3852,24.3845 205.9432,24.3845" id="Fill-291" fill="#35CDAB"></path>
                <g id="Group-295" transform="translate(205.000000, 19.326000)">
                    <mask id="mask-176" fill="white">
                        <use xlink:href="#path-175"></use>
                    </mask>
                    <g id="Clip-294"></g>
                    <polygon id="Fill-293" fill="#35CDAB" mask="url(#mask-176)" points="-3.858 9.059 5.744 9.059 5.744 -3.743 -3.858 -3.743"></polygon>
                </g>
                <path d="M165.9378,37.1857 C165.4978,37.1857 165.1378,37.5447 165.1378,37.9857 C165.1378,38.4267 165.4978,38.7867 165.9378,38.7867 C166.3788,38.7867 166.7378,38.4267 166.7378,37.9857 C166.7378,37.5447 166.3788,37.1857 165.9378,37.1857 M165.9378,40.3867 C164.6148,40.3867 163.5378,39.3097 163.5378,37.9857 C163.5378,36.6627 164.6148,35.5857 165.9378,35.5857 C167.2618,35.5857 168.3378,36.6627 168.3378,37.9857 C168.3378,39.3097 167.2618,40.3867 165.9378,40.3867" id="Fill-296" fill="#66CC10"></path>
                <g id="Group-300" transform="translate(163.000000, 35.326000)">
                    <mask id="mask-178" fill="white">
                        <use xlink:href="#path-177"></use>
                    </mask>
                    <g id="Clip-299"></g>
                    <polygon id="Fill-298" fill="#66CC10" mask="url(#mask-178)" points="-3.463 9.061 9.339 9.061 9.339 -3.741 -3.463 -3.741"></polygon>
                </g>
            </g>
        </g>
    </g>
</svg>